<svg xmlns="http://www.w3.org/2000/svg" viewBox="0 0 52 52"><path d="M35 9.935v-7.27c.11.08.21.15.3.24l7.83 7.83c.09.09.16.19.24.29H36c-.55 0-1-.49-1-1.09z"/><path d="M36 13.025c-1.65 0-3-1.38-3-3.09v-7.91H11c-1.65 0-3 1.35-3 3v41.95c0 1.65 1.35 3 3 3h30c1.66 0 3-1.35 3-3v-33.95h-8zm-1.72 21.536c0 2.24-1.32 4-3 4s-3-1.76-3-4 1.32-4 3-4c.3 0 .58.05.85.16.1-.4.15-.81.15-1.22 0-3.03-2.8-5.5-6.25-5.5-3.44 0-6.25 2.47-6.25 5.5 0 .49.07.97.22 1.44.39-.25.82-.38 1.28-.38 1.68 0 3 1.76 3 4s-1.32 4-3 4-3-1.76-3-4c0-.65.11-1.26.32-1.8-.01-.01-.01-.01 0-.01a6.847 6.847 0 0 1-.82-3.25c0-4.13 3.7-7.5 8.25-7.5s8.25 3.37 8.25 7.5c0 .94-.19 1.85-.56 2.71.35.65.56 1.46.56 2.35z"/></svg>